<?xml version="1.0" standalone="no"?>
<!DOCTYPE svg PUBLIC "-//W3C//DTD SVG 20010904//EN"
 "http://www.w3.org/TR/2001/REC-SVG-20010904/DTD/svg10.dtd">
<svg version="1.0" xmlns="http://www.w3.org/2000/svg"
 width="595.000000pt" height="104.000000pt" viewBox="0 0 595.000000 104.000000"
 preserveAspectRatio="xMidYMid meet">

<g transform="translate(0.000000,104.000000) scale(0.100000,-0.100000)"
fill="currentColor" stroke="none">
<path d="M130 996 c0 -20 -6 -24 -45 -29 -88 -9 -85 5 -85 -367 l0 -327 23
-21 c22 -21 32 -22 225 -22 l201 0 27 -60 c48 -107 139 -165 259 -164 84 1
128 18 188 73 115 106 120 280 13 398 l-36 40 0 196 c0 190 -1 197 -23 222
-17 20 -35 28 -70 32 -41 5 -47 8 -47 29 0 20 -5 24 -30 24 -25 0 -30 -4 -30
-25 0 -21 -5 -25 -30 -25 -25 0 -30 4 -30 25 0 20 -5 25 -25 25 -20 0 -25 -5
-25 -25 0 -21 -5 -25 -30 -25 -25 0 -30 4 -30 25 0 20 -5 25 -25 25 -20 0 -25
-5 -25 -25 0 -21 -5 -25 -30 -25 -25 0 -30 4 -30 25 0 21 -5 25 -30 25 -25 0
-30 -4 -30 -25 0 -21 -5 -25 -30 -25 -25 0 -30 4 -30 25 0 20 -5 25 -25 25
-20 0 -25 -5 -25 -25 0 -21 -5 -25 -30 -25 -25 0 -30 4 -30 25 0 21 -5 25 -30
25 -25 0 -30 -4 -30 -24z m0 -141 c0 -21 5 -25 30 -25 25 0 30 4 30 25 0 21 5
25 30 25 25 0 30 -4 30 -25 0 -20 5 -25 25 -25 20 0 25 5 25 25 0 21 5 25 30
25 25 0 30 -4 30 -25 0 -21 5 -25 30 -25 25 0 30 4 30 25 0 21 5 25 30 25 25
0 30 -4 30 -25 0 -20 5 -25 25 -25 20 0 25 5 25 25 0 21 5 25 30 25 25 0 30
-4 30 -25 0 -34 47 -37 52 -2 2 16 11 23 31 25 23 3 27 0 27 -22 0 -22 4 -26
30 -26 25 0 30 4 30 25 0 21 5 25 30 25 l30 0 0 -161 0 -160 -27 3 -28 3 -3
103 -3 102 -199 0 -200 0 0 -60 0 -60 -115 0 -116 0 3 -137 3 -138 142 -3 143
-3 0 61 0 60 50 0 c28 0 50 -2 50 -4 0 -2 -16 -33 -35 -70 -19 -37 -35 -76
-35 -87 0 -18 -9 -19 -185 -19 l-185 0 0 285 0 285 25 0 c20 0 25 -5 25 -25z
m348 -172 c-2 -22 -9 -29 -30 -31 -25 -3 -28 0 -28 27 0 28 3 31 31 31 27 0
30 -3 27 -27z m112 -3 c0 -27 -3 -30 -30 -30 -27 0 -30 3 -30 30 0 27 3 30 30
30 27 0 30 -3 30 -30z m110 0 c0 -25 -4 -30 -25 -30 -14 0 -28 7 -31 15 -10
25 4 45 31 45 21 0 25 -5 25 -30z m-450 -110 c0 -27 -3 -30 -30 -30 -27 0 -30
3 -30 30 0 27 3 30 30 30 27 0 30 -3 30 -30z m110 0 c0 -27 -3 -30 -30 -30
-27 0 -30 3 -30 30 0 27 3 30 30 30 27 0 30 -3 30 -30z m120 0 c0 -27 -3 -30
-30 -30 -27 0 -30 3 -30 30 0 27 3 30 30 30 27 0 30 -3 30 -30z m110 0 c0 -27
-3 -30 -30 -30 -27 0 -30 3 -30 30 0 27 3 30 30 30 27 0 30 -3 30 -30z m108
13 c-4 -22 -58 -31 -58 -10 0 20 10 27 37 27 18 0 24 -5 21 -17z m-450 -125
c3 -25 0 -28 -27 -28 -26 0 -31 4 -31 23 0 30 9 39 35 35 13 -2 21 -12 23 -30z
m112 2 c0 -27 -3 -30 -30 -30 -25 0 -30 4 -30 23 0 30 7 37 37 37 19 0 23 -5
23 -30z m446 9 c38 -12 93 -64 110 -106 36 -85 3 -195 -73 -243 -59 -38 -103
-44 -167 -26 -190 56 -189 331 1 382 48 12 69 11 129 -7z"/>
<path d="M707 423 c-4 -3 -7 -42 -7 -85 l0 -78 70 0 c68 0 70 1 70 25 0 23 -4
25 -40 25 l-40 0 0 60 c0 56 -1 60 -23 60 -13 0 -27 -3 -30 -7z"/>
<path d="M5200 555 c0 -158 1 -165 20 -165 16 0 20 7 20 33 0 22 8 41 24 56
l23 22 38 -56 c36 -52 65 -71 65 -42 0 8 -19 40 -41 71 l-41 58 38 39 c28 29
35 42 27 50 -9 9 -27 -3 -72 -46 l-61 -58 0 101 c0 95 -1 102 -20 102 -19 0
-20 -7 -20 -165z"/>
<path d="M1447 553 c-37 -82 -67 -151 -67 -155 0 -5 8 -8 18 -8 10 0 23 15 34
40 l17 40 81 0 82 0 15 -40 c11 -27 22 -40 35 -40 10 0 18 3 18 8 -1 23 -138
297 -150 300 -11 2 -36 -43 -83 -145z m117 15 l26 -58 -61 0 c-33 0 -59 4 -57
8 27 67 54 119 60 114 4 -4 18 -33 32 -64z"/>
<path d="M2134 685 c-4 -9 -2 -21 4 -27 15 -15 44 -1 40 19 -4 23 -36 29 -44
8z"/>
<path d="M2330 545 c0 -131 2 -155 15 -155 12 0 15 19 15 113 1 130 3 129 71
-5 22 -43 43 -78 48 -78 5 0 34 44 63 98 l53 97 3 -112 c2 -91 5 -113 17 -113
13 0 15 25 15 155 0 141 -2 155 -17 155 -13 0 -35 -33 -72 -105 -30 -58 -57
-105 -60 -105 -3 0 -31 47 -61 105 -38 72 -60 105 -72 105 -16 0 -18 -14 -18
-155z"/>
<path d="M4050 680 c0 -17 7 -20 50 -20 l50 0 0 -135 c0 -113 2 -135 15 -135
13 0 15 22 15 135 l0 135 50 0 c43 0 50 3 50 20 0 19 -7 20 -115 20 -108 0
-115 -1 -115 -20z"/>
<path d="M1790 510 c0 -96 3 -120 14 -120 10 0 15 20 18 81 3 70 6 83 27 100
13 10 36 19 52 19 44 0 59 -31 59 -122 0 -63 3 -78 15 -78 24 0 21 170 -2 199
-26 31 -72 41 -116 26 -31 -11 -37 -10 -37 1 0 8 -7 14 -15 14 -12 0 -15 -20
-15 -120z"/>
<path d="M2140 510 c0 -100 3 -120 15 -120 13 0 15 20 15 120 0 100 -2 120
-15 120 -12 0 -15 -20 -15 -120z"/>
<path d="M2850 622 c-38 -5 -78 -38 -63 -53 9 -9 17 -7 34 5 30 20 73 21 93 0
30 -29 19 -41 -45 -47 -94 -8 -125 -52 -78 -111 16 -20 29 -26 60 -26 22 0 49
5 60 10 13 7 19 7 19 0 0 -5 7 -10 15 -10 20 0 21 176 1 203 -16 20 -60 34
-96 29z m80 -145 c0 -17 -28 -43 -57 -51 -28 -9 -63 9 -63 33 0 27 9 31 67 31
38 0 53 -4 53 -13z"/>
<path d="M3110 510 c0 -96 3 -120 14 -120 10 0 15 20 17 79 5 90 23 121 71
121 51 0 68 -29 68 -120 0 -64 3 -80 15 -80 24 0 21 170 -2 199 -26 31 -72 41
-116 26 -31 -11 -37 -10 -37 1 0 8 -7 14 -15 14 -12 0 -15 -20 -15 -120z"/>
<path d="M3506 615 c-104 -36 -100 -174 7 -214 20 -8 38 -7 67 3 34 12 40 12
40 -1 0 -22 -47 -63 -72 -63 -13 0 -37 9 -55 19 -27 17 -33 18 -43 6 -9 -11
-5 -18 22 -35 25 -16 44 -20 82 -17 87 8 110 58 104 227 -3 71 -6 85 -20 88
-11 2 -18 -3 -18 -13 0 -9 -5 -13 -10 -10 -29 18 -69 22 -104 10z m93 -51 c62
-79 -34 -180 -106 -112 -16 14 -23 33 -23 57 0 74 85 110 129 55z"/>
<path d="M3860 622 c-38 -5 -78 -38 -63 -53 9 -9 17 -7 34 5 30 20 73 21 93 0
30 -29 19 -41 -45 -47 -94 -8 -125 -52 -78 -111 16 -20 29 -26 60 -26 22 0 49
5 60 10 13 7 19 7 19 0 0 -5 7 -10 15 -10 12 0 15 17 15 93 0 59 -5 99 -12
110 -15 20 -62 34 -98 29z m80 -145 c0 -17 -28 -43 -57 -51 -28 -9 -63 9 -63
33 0 27 9 31 67 31 38 0 53 -4 53 -13z"/>
<path d="M4360 510 c0 -100 3 -120 15 -120 12 0 15 14 15 63 0 79 24 131 63
135 25 3 35 20 21 34 -3 3 -22 1 -42 -4 -26 -7 -37 -7 -40 1 -2 6 -10 11 -18
11 -11 0 -14 -23 -14 -120z"/>
<path d="M4615 615 c-48 -17 -63 -31 -48 -46 8 -8 19 -6 41 5 42 22 79 20 92
-3 17 -33 12 -38 -52 -44 -73 -6 -104 -32 -93 -76 12 -52 83 -79 136 -51 13 7
19 7 19 0 0 -5 9 -10 20 -10 18 0 20 6 19 53 0 67 -13 145 -26 158 -20 20 -69
27 -108 14z m93 -141 c-2 -9 -15 -26 -30 -37 -43 -32 -101 -6 -84 38 4 11 21
15 61 15 47 0 56 -3 53 -16z"/>
<path d="M4950 619 c-60 -13 -87 -59 -80 -138 5 -60 61 -98 132 -88 47 6 72
26 63 50 -6 14 -10 14 -38 -4 -43 -26 -73 -24 -102 6 -71 70 21 187 102 130
17 -12 23 -12 32 -1 23 28 -49 58 -109 45z"/>
<path d="M5585 624 c-5 -1 -23 -5 -38 -8 -37 -9 -67 -59 -67 -114 0 -37 6 -50
34 -78 29 -29 41 -34 79 -34 54 0 105 33 86 56 -9 11 -15 11 -36 -6 -42 -32
-101 -20 -122 26 l-11 24 95 0 95 0 0 28 c0 22 -32 92 -42 92 -2 0 -17 4 -33
8 -17 5 -34 8 -40 6z m53 -50 c43 -30 28 -44 -48 -44 -54 0 -70 3 -70 14 0 20
39 46 70 46 14 0 36 -7 48 -16z"/>
<path d="M5830 510 c0 -96 3 -120 14 -120 10 0 15 20 17 79 4 84 23 121 61
121 12 0 18 7 18 21 0 15 -5 19 -17 15 -10 -2 -28 -7 -40 -11 -14 -4 -23 -2
-23 4 0 6 -7 11 -15 11 -12 0 -15 -20 -15 -120z"/>
</g>
</svg>
